<svg xmlns="http://www.w3.org/2000/svg"><style>:root svg:not(:target){display:none}</style><symbol id="vk" viewBox="0 0 25 25"><path d="M13.72 15.05c.45-.14 1.01.95 1.62 1.36.45.32.8.25.8.25l1.6-.02s.84-.06.45-.72c-.04-.06-.24-.5-1.2-1.4-1-.95-.87-.8.34-2.43q1.1-1.48.94-1.87c-.08-.25-.63-.18-.63-.18l-1.8.01q-.3-.02-.4.24s-.3.77-.67 1.43c-.8 1.38-1.13 1.45-1.26 1.37-.31-.2-.23-.8-.23-1.24 0-1.34.2-1.9-.4-2.04a3 3 0 0 0-.84-.09c-.65 0-1.2 0-1.5.16-.2.1-.37.33-.27.34.12.02.39.07.53.27.19.26.18.83.18.83s.11 1.58-.25 1.77c-.24.14-.58-.14-1.3-1.4-.36-.63-.64-1.35-.64-1.35s-.05-.13-.15-.2a1 1 0 0 0-.28-.11h-1.72s-.26.02-.35.13 0 .3 0 .3 1.34 3.2 2.86 4.8c1.4 1.47 3 1.38 3 1.38h.71s.22-.03.33-.15c.1-.1.1-.32.1-.32s-.01-.97.43-1.12"/></symbol><symbol id="ok" viewBox="0 0 25 25"><path d="M12.68 6.89c.9 0 1.63.75 1.63 1.68s-.73 1.68-1.63 1.68-1.63-.75-1.63-1.68.73-1.68 1.63-1.68m0 5.74a4 4 0 0 0 3.94-4.06 4 4 0 0 0-3.94-4.06 4 4 0 0 0-3.93 4.06 4 4 0 0 0 3.93 4.06m1.6 3.31a7 7 0 0 0 2.28-.97c.53-.35.7-1.09.36-1.64a1.13 1.13 0 0 0-1.6-.38 4.9 4.9 0 0 1-5.29 0 1.13 1.13 0 0 0-1.59.38c-.34.55-.17 1.29.36 1.64a7 7 0 0 0 2.29.97l-2.2 2.27a1.2 1.2 0 0 0 0 1.68 1.14 1.14 0 0 0 1.63 0l2.16-2.23 2.16 2.23c.45.47 1.18.47 1.63 0s.45-1.21 0-1.68z"/></symbol><symbol id="reddit" viewBox="0 0 25 25"><path d="M13.85 5.56c-.44 0-.86.22-1.13.55q-.39.5-.52 1.14a9 9 0 0 0-.24 2.1 7 7 0 0 0-3.33 1.02 2 2 0 0 0-1.28-.5c-.5 0-.98.23-1.33.67-.68.85-.6 2.24.18 3.06q-.08.39-.08.78c0 2.8 2.85 5.06 6.38 5.06s6.38-2.26 6.38-5.06q0-.39-.08-.78c.78-.82.86-2.21.18-3.06a1.7 1.7 0 0 0-1.33-.67 2 2 0 0 0-1.28.5 7 7 0 0 0-3.31-1.03 9 9 0 0 1 .18-1.75q.12-.45.27-.65c.1-.12.17-.17.34-.17.36 0 .4.12.63.4q.14.23.43.5c.2.17.5.32.83.32v-1.22c-.09 0-.1 0-.17-.05l-.27-.35c-.25-.32-.73-.81-1.45-.81m3.51.11c-.84 0-1.52.77-1.52 1.71 0 .95.68 1.71 1.52 1.71s1.52-.76 1.52-1.7c0-.95-.68-1.72-1.52-1.72m0 .6c.54 0 .98.5.98 1.11s-.44 1.1-.98 1.1-.98-.49-.98-1.1c0-.6.44-1.1.98-1.1m-4.86 4.02c3 0 5.52 1.88 5.52 4.1s-2.53 4.08-5.52 4.08c-3 0-5.52-1.87-5.52-4.09s2.53-4.09 5.52-4.09m-5.13.55q.23 0 .45.12-.82.7-1.26 1.6c-.2-.47-.15-1.06.1-1.37a1 1 0 0 1 .7-.35m10.26 0q.43 0 .71.35c.25.3.3.9.1 1.37q-.44-.9-1.26-1.6.22-.1.45-.12m-7.3 1.53c-.53 0-.97.5-.97 1.1s.44 1.1.98 1.1.98-.5.98-1.1-.44-1.1-.98-1.1m4.33 0c-.54 0-.98.5-.98 1.1s.44 1.1.98 1.1.98-.5.98-1.1-.44-1.1-.98-1.1m-4.84 3.74c.34.8 1.4 1.58 2.68 1.58s2.36-.77 2.7-1.58c-.62.46-1.6.77-2.7.77s-2.06-.31-2.68-.77"/></symbol><svg xmlns="http://www.w3.org/2000/svg" id="faq" fill="none" viewBox="0 0 40 40"><rect width="39" height="39" x="0.5" y="0.5" stroke="#1C3374" rx="19.5"/><path stroke="#1C3374" d="M20 10v10m0 10v-10m0 0h10m-10 0h-10"/></svg><svg xmlns="http://www.w3.org/2000/svg" id="faq-hover" fill="none" viewBox="0 0 40 40"><rect width="39" height="39" x="0.5" y="0.5" fill="#1C3374" rx="19.5"/><rect width="39" height="39" x="0.5" y="0.5" stroke="#1C3374" rx="19.5"/><path stroke="#fff" d="M20 10v10m0 10v-10m0 0h10m-10 0h-10"/></svg><svg xmlns="http://www.w3.org/2000/svg" id="faq-focus" fill="none" viewBox="0 0 42 42"><rect width="41" height="41" x="0.5" y="0.5" fill="#74819C" rx="20.5"/><rect width="41" height="41" x="0.5" y="0.5" stroke="#1C3374" rx="20.5"/><path stroke="#fff" d="M21 11v10m0 10v-10m0 0h10m-10 0h-10"/></svg><svg xmlns="http://www.w3.org/2000/svg" id="faq-active" fill="none" viewBox="0 0 40 40"><rect width="40" height="40" fill="#1C3374" rx="20"/><path stroke="#fff" d="M30 20h-20"/></svg><svg xmlns="http://www.w3.org/2000/svg" id="faq-mobile" fill="none" viewBox="0 0 30 30"><rect width="29" height="29" x="0.5" y="0.5" stroke="#1C3374" rx="14.5"/><path stroke="#1C3374" d="M15 8v7m0 7v-7m0 0h7m-7 0h-7"/></svg><svg xmlns="http://www.w3.org/2000/svg" id="faq-hover-mobile" fill="none" viewBox="0 0 30 30"><rect width="29" height="29" x="0.5" y="0.5" fill="#1C3374" rx="14.5"/><rect width="29" height="29" x="0.5" y="0.5" stroke="#1C3374" rx="14.5"/><path stroke="#fff" d="M15 8v7m0 7v-7m0 0h7m-7 0h-7"/></svg><svg xmlns="http://www.w3.org/2000/svg" id="faq-focus-mobile" fill="none" viewBox="0 0 30 30"><rect width="29" height="29" x="0.5" y="0.5" fill="#74819C" rx="14.5"/><rect width="29" height="29" x="0.5" y="0.5" stroke="#1C3374" rx="14.5"/><path stroke="#fff" d="M15 8v7m0 7v-7m0 0h7m-7 0h-7"/></svg><svg xmlns="http://www.w3.org/2000/svg" id="faq-active-mobile" fill="none" viewBox="0 0 30 30"><rect width="30" height="30" fill="#1C3374" rx="15"/><path stroke="#fff" d="M22 15h-14"/></svg><svg xmlns="http://www.w3.org/2000/svg" id="rouble-mobile" fill="none" viewBox="0 0 24 34"><path fill="#102654" fill-rule="evenodd" d="M14.8 5.21h-6.8v8.65h6.8c2.43 0 4.4-1.94 4.4-4.32a4.36 4.36 0 0 0-4.4-4.33m-11.6-4.71v18.07h11.6c5.08 0 9.2-4.04 9.2-9.03a9.1 9.1 0 0 0-9.2-9.04z" clip-rule="evenodd"/><path fill="#102654" fill-rule="evenodd" d="M0 13.86h4.8v4.71h-4.8z" clip-rule="evenodd"/><path fill="#102654" fill-rule="evenodd" d="M2.93 22.75v-8.1h4.8v8.1h9.07v4.72h-9.07v6.03h-4.8v-6.03h-2.93v-4.72z" clip-rule="evenodd"/></svg><svg xmlns="http://www.w3.org/2000/svg" id="rouble-tablet" fill="none" viewBox="0 0 30 42"><path fill="#102654" fill-rule="evenodd" d="M0 17h6v6h-6z" clip-rule="evenodd"/><path fill="#102654" fill-rule="evenodd" d="M3.66 28.32v-10.32h6v10.32h11.34v6h-11.34v7.68h-6v-7.68h-3.66v-6z" clip-rule="evenodd"/><path fill="#102654" fill-rule="evenodd" d="M18.5 6h-8.5v11h8.5a5.5 5.5 0 1 0 0-11m-14.5-6v23h14.5a11.5 11.5 0 1 0 0-23z" clip-rule="evenodd"/></svg></svg>